<svg width="8" height="14" viewBox="0 0 8 14" fill="none" xmlns="http://www.w3.org/2000/svg">
<path opacity="0.25" d="M3.983 11.675C3.58167 11.675 3.171 11.6423 2.751 11.577C2.33567 11.5117 1.94833 11.4253 1.589 11.318C1.23433 11.2107 0.942667 11.101 0.714 10.989L0.882 9.141C1.19 9.30433 1.512 9.44667 1.848 9.568C2.184 9.68467 2.51767 9.77567 2.849 9.841C3.185 9.90167 3.50467 9.932 3.808 9.932C4.11133 9.932 4.375 9.89233 4.599 9.813C4.823 9.73367 4.998 9.60767 5.124 9.435C5.25 9.26233 5.313 9.036 5.313 8.756C5.313 8.504 5.229 8.29633 5.061 8.133C4.89767 7.96967 4.66433 7.82967 4.361 7.713C4.06233 7.59167 3.71233 7.47033 3.311 7.349C2.72767 7.181 2.23067 6.985 1.82 6.761C1.414 6.537 1.10367 6.25 0.889 5.9C0.674333 5.55 0.567 5.10667 0.567 4.57C0.567 4.01 0.688333 3.51767 0.931 3.093C1.17367 2.66367 1.54233 2.32767 2.037 2.085C2.53167 1.84233 3.15467 1.721 3.906 1.721C4.19533 1.721 4.48933 1.73967 4.788 1.777C5.09133 1.81433 5.383 1.86567 5.663 1.931C5.943 1.99633 6.20433 2.06867 6.447 2.148C6.68967 2.22733 6.89967 2.31133 7.077 2.4L6.916 4.276C6.63133 4.09867 6.335 3.954 6.027 3.842C5.719 3.72533 5.418 3.639 5.124 3.583C4.83467 3.527 4.56867 3.499 4.326 3.499C4.06 3.499 3.81733 3.53867 3.598 3.618C3.37867 3.69267 3.20367 3.80933 3.073 3.968C2.947 4.12667 2.884 4.332 2.884 4.584C2.884 4.81267 2.94467 5.00167 3.066 5.151C3.18733 5.29567 3.374 5.424 3.626 5.536C3.88267 5.648 4.214 5.767 4.62 5.893C5.376 6.12167 5.971 6.362 6.405 6.614C6.84367 6.86133 7.15633 7.15767 7.343 7.503C7.52967 7.84367 7.623 8.26367 7.623 8.763C7.623 9.351 7.49467 9.86433 7.238 10.303C6.986 10.737 6.59167 11.0753 6.055 11.318C5.51833 11.556 4.82767 11.675 3.983 11.675ZM3.339 13.418C3.339 12.9233 3.339 12.4473 3.339 11.99C3.339 11.5373 3.339 11.0893 3.339 10.646H4.893C4.893 11.0893 4.893 11.5373 4.893 11.99C4.893 12.4473 4.893 12.9233 4.893 13.418H3.339ZM3.339 2.666C3.339 2.27867 3.339 1.88667 3.339 1.49C3.339 1.08867 3.339 0.678 3.339 0.258H4.893C4.893 0.678 4.893 1.08867 4.893 1.49C4.893 1.88667 4.893 2.27867 4.893 2.666H3.339Z" fill="black"/>
</svg>
